<svg width="260" height="230" viewBox="0 0 128 103" fill="none" xmlns="http://www.w3.org/2000/svg">
<path d="M63.9518 102.4C93.3848 102.4 117.245 79.477 117.245 51.2C117.245 22.923 93.3848 0 63.9518 0C34.5188 0 10.6586 22.923 10.6586 51.2C10.6586 79.477 34.5188 102.4 63.9518 102.4Z" fill="#E5E5EA"/>
<path d="M70.4857 11.52H23.1828C21.3304 11.52 19.8288 12.9627 19.8288 14.7423V32.0604C19.8288 33.84 21.3304 35.2826 23.1828 35.2826H70.4857C72.3381 35.2826 73.8397 33.84 73.8397 32.0604V14.7423C73.8397 12.9627 72.3381 11.52 70.4857 11.52Z" fill="white"/>
<path d="M67.8181 16.2875H45.0245C43.9776 16.2875 43.1289 17.1023 43.1289 18.1073C43.1289 19.1124 43.9776 19.9272 45.0245 19.9272H67.8181C68.8649 19.9272 69.7136 19.1124 69.7136 18.1073C69.7136 17.1023 68.8649 16.2875 67.8181 16.2875Z" fill="#DFD6D8"/>
<path d="M67.8181 21.5801H45.0245C43.9776 21.5801 43.1289 22.3949 43.1289 23.3999C43.1289 24.405 43.9776 25.2198 45.0245 25.2198H67.8181C68.8649 25.2198 69.7136 24.405 69.7136 23.3999C69.7136 22.3949 68.8649 21.5801 67.8181 21.5801Z" fill="#DFD6D8"/>
<path d="M58.3555 26.875H45.0245C43.9776 26.875 43.1289 27.6898 43.1289 28.6949C43.1289 29.6999 43.9776 30.5147 45.0245 30.5147H58.3555C59.4023 30.5147 60.251 29.6999 60.251 28.6949C60.251 27.6898 59.4023 26.875 58.3555 26.875Z" fill="#DFD6D8"/>
<path d="M32.1109 30.6743C36.2928 30.6743 39.6829 27.4173 39.6829 23.3997C39.6829 19.382 36.2928 16.125 32.1109 16.125C27.9289 16.125 24.5388 19.382 24.5388 23.3997C24.5388 27.4173 27.9289 30.6743 32.1109 30.6743Z" fill="#B7A1A6"/>
<path d="M50.6569 38.4351H3.35398C1.50163 38.4351 0 39.8777 0 41.6573V58.9754C0 60.755 1.50163 62.1977 3.35398 62.1977H50.6569C52.5093 62.1977 54.0109 60.755 54.0109 58.9754V41.6573C54.0109 39.8777 52.5093 38.4351 50.6569 38.4351Z" fill="white"/>
<path d="M47.9919 43.2025H25.1983C24.1514 43.2025 23.3028 44.0173 23.3028 45.0224C23.3028 46.0275 24.1514 46.8423 25.1983 46.8423H47.9919C49.0388 46.8423 49.8874 46.0275 49.8874 45.0224C49.8874 44.0173 49.0388 43.2025 47.9919 43.2025Z" fill="#DFD6D8"/>
<path d="M47.9919 48.4976H25.1983C24.1514 48.4976 23.3028 49.3123 23.3028 50.3174C23.3028 51.3225 24.1514 52.1373 25.1983 52.1373H47.9919C49.0388 52.1373 49.8874 51.3225 49.8874 50.3174C49.8874 49.3123 49.0388 48.4976 47.9919 48.4976Z" fill="#DFD6D8"/>
<path d="M38.5293 53.79H25.1983C24.1514 53.79 23.3028 54.6048 23.3028 55.6099C23.3028 56.615 24.1514 57.4298 25.1983 57.4298H38.5293C39.5762 57.4298 40.4248 56.615 40.4248 55.6099C40.4248 54.6048 39.5762 53.79 38.5293 53.79Z" fill="#DFD6D8"/>
<path d="M12.2821 57.5894C16.464 57.5894 19.8541 54.3324 19.8541 50.3147C19.8541 46.297 16.464 43.04 12.2821 43.04C8.10012 43.04 4.70999 46.297 4.70999 50.3147C4.70999 54.3324 8.10012 57.5894 12.2821 57.5894Z" fill="#B7A1A6"/>
<path d="M70.4857 65.3475H23.1828C21.3305 65.3475 19.8288 66.7902 19.8288 68.5698V85.8879C19.8288 87.6675 21.3305 89.1102 23.1828 89.1102H70.4857C72.3381 89.1102 73.8397 87.6675 73.8397 85.8879V68.5698C73.8397 66.7902 72.3381 65.3475 70.4857 65.3475Z" fill="white"/>
<path d="M67.8181 70.115H45.0245C43.9776 70.115 43.129 70.9298 43.129 71.9348C43.129 72.9399 43.9776 73.7547 45.0245 73.7547H67.8181C68.865 73.7547 69.7136 72.9399 69.7136 71.9348C69.7136 70.9298 68.865 70.115 67.8181 70.115Z" fill="#DFD6D8"/>
<path d="M67.8181 75.4075H45.0245C43.9776 75.4075 43.129 76.2223 43.129 77.2273C43.129 78.2324 43.9776 79.0472 45.0245 79.0472H67.8181C68.865 79.0472 69.7136 78.2324 69.7136 77.2273C69.7136 76.2223 68.865 75.4075 67.8181 75.4075Z" fill="#DFD6D8"/>
<path d="M58.3555 80.7025H45.0245C43.9776 80.7025 43.129 81.5173 43.129 82.5224C43.129 83.5275 43.9776 84.3422 45.0245 84.3422H58.3555C59.4024 84.3422 60.251 83.5275 60.251 82.5224C60.251 81.5173 59.4024 80.7025 58.3555 80.7025Z" fill="#DFD6D8"/>
<path d="M32.1109 84.5018C36.2928 84.5018 39.683 81.2449 39.683 77.2272C39.683 73.2095 36.2928 69.9525 32.1109 69.9525C27.9289 69.9525 24.5388 73.2095 24.5388 77.2272C24.5388 81.2449 27.9289 84.5018 32.1109 84.5018Z" fill="#B7A1A6"/>
<path d="M101.926 30.2311C98.2818 26.7295 93.6383 24.3449 88.5831 23.3787C83.5279 22.4125 78.2881 22.9082 73.5261 24.8031C68.7642 26.698 64.6941 29.9069 61.8305 34.0242C58.9669 38.1414 57.4385 42.982 57.4385 47.9338C57.4385 52.8856 58.9669 57.7262 61.8305 61.8435C64.6941 65.9607 68.7642 69.1697 73.5261 71.0645C78.2881 72.9594 83.5279 73.4552 88.5831 72.489C93.6383 71.5228 98.2818 69.1382 101.926 65.6366C104.346 63.3119 106.266 60.552 107.576 57.5146C108.885 54.4771 109.559 51.2216 109.559 47.9338C109.559 44.6461 108.885 41.3905 107.576 38.353C106.266 35.3156 104.346 32.5557 101.926 30.2311V30.2311Z" fill="#9C94D0"/>
<path d="M123.822 78.5611L105.5 60.9589C103.193 58.742 99.4516 58.742 97.1441 60.9589C94.8367 63.1757 94.8367 66.7698 97.1442 68.9866L115.466 86.5889C117.773 88.8057 121.515 88.8057 123.822 86.5889C126.129 84.3721 126.129 80.7779 123.822 78.5611Z" fill="#9C94D0"/>
<path d="M95.8528 36.0657C93.4097 33.7185 90.297 32.12 86.9084 31.4724C83.5197 30.8248 80.0072 31.1571 76.8151 32.4274C73.623 33.6976 70.8947 35.8487 68.9751 38.6087C67.0556 41.3687 66.031 44.6135 66.031 47.9329C66.031 51.2522 67.0556 54.497 68.9751 57.257C70.8947 60.017 73.623 62.1681 76.8151 63.4383C80.0072 64.7086 83.5197 65.0409 86.9084 64.3933C90.297 63.7457 93.4097 62.1472 95.8528 59.8C99.1282 56.6523 100.968 52.3837 100.968 47.9329C100.968 43.482 99.1282 39.2134 95.8528 36.0657V36.0657Z" fill="#F2F2F7"/>
<path d="M87.3413 47.9345L91.7047 43.7424C92.2153 43.2519 92.5021 42.5867 92.5021 41.893C92.5021 41.1993 92.2153 40.534 91.7047 40.0435C91.1942 39.553 90.5017 39.2775 89.7797 39.2775C89.0577 39.2775 88.3652 39.553 87.8546 40.0435L83.4912 44.2356L79.1278 40.0435C78.6172 39.553 77.9248 39.2775 77.2028 39.2775C76.4807 39.2775 75.7883 39.553 75.2777 40.0435C74.7672 40.534 74.4803 41.1993 74.4803 41.893C74.4803 42.5867 74.7672 43.2519 75.2777 43.7424L79.6411 47.9345L75.2777 52.1265C74.7672 52.617 74.4803 53.2823 74.4803 53.9759C74.4803 54.6696 74.7672 55.3349 75.2777 55.8254C75.7883 56.3159 76.4807 56.5914 77.2028 56.5914C77.9248 56.5914 78.6172 56.3159 79.1278 55.8254L83.4912 51.6333L87.8546 55.8254C88.3652 56.3159 89.0577 56.5914 89.7797 56.5914C90.5017 56.5914 91.1942 56.3159 91.7047 55.8254C92.2153 55.3349 92.5021 54.6696 92.5021 53.9759C92.5021 53.2823 92.2153 52.617 91.7047 52.1265L87.3413 47.9345Z" fill="#BB2649"/>
</svg>
