<svg width="20" height="21" viewBox="0 0 20 21" fill="none" xmlns="http://www.w3.org/2000/svg">
<path d="M7.42857 0.461548C9.39875 0.461548 11.2882 1.2442 12.6814 2.63733C14.0745 4.03045 14.8571 5.91994 14.8571 7.89012C14.8571 9.73012 14.1829 11.4215 13.0743 12.7244L13.3829 13.033H14.2857L20 18.7473L18.2857 20.4615L12.5714 14.7473V13.8444L12.2629 13.5358C10.96 14.6444 9.26857 15.3187 7.42857 15.3187C5.45839 15.3187 3.56891 14.536 2.17578 13.1429C0.782651 11.7498 0 9.8603 0 7.89012C0 5.91994 0.782651 4.03045 2.17578 2.63733C3.56891 1.2442 5.45839 0.461548 7.42857 0.461548ZM7.42857 2.74726C4.57143 2.74726 2.28571 5.03298 2.28571 7.89012C2.28571 10.7473 4.57143 13.033 7.42857 13.033C10.2857 13.033 12.5714 10.7473 12.5714 7.89012C12.5714 5.03298 10.2857 2.74726 7.42857 2.74726Z" fill="black"/>
</svg>
