<svg width="33" height="33" viewBox="0 0 33 33" fill="#bb2649" xmlns="http://www.w3.org/2000/svg">
<g clip-path="url(#clip0_853_2545)">
<path d="M15.8555 2.66663V1.66663C15.8555 1.40141 15.9608 1.14706 16.1484 0.959519C16.3359 0.771983 16.5903 0.666626 16.8555 0.666626C17.1207 0.666626 17.375 0.771983 17.5626 0.959519C17.7501 1.14706 17.8555 1.40141 17.8555 1.66663V2.66663C17.8555 2.93184 17.7501 3.1862 17.5626 3.37373C17.375 3.56127 17.1207 3.66663 16.8555 3.66663C16.5903 3.66663 16.3359 3.56127 16.1484 3.37373C15.9608 3.1862 15.8555 2.93184 15.8555 2.66663ZM25.8555 6.66663C25.9868 6.66673 26.1169 6.64095 26.2383 6.59076C26.3597 6.54057 26.47 6.46696 26.563 6.37413L27.563 5.37413C27.7506 5.18649 27.856 4.93199 27.856 4.66663C27.856 4.40126 27.7506 4.14677 27.563 3.95913C27.3753 3.77149 27.1208 3.66607 26.8555 3.66607C26.5901 3.66607 26.3356 3.77149 26.148 3.95913L25.148 4.95913C25.008 5.09898 24.9126 5.27723 24.8739 5.47132C24.8353 5.6654 24.8551 5.86659 24.9308 6.04942C25.0066 6.23224 25.1349 6.38848 25.2995 6.49835C25.4641 6.60822 25.6576 6.66678 25.8555 6.66663ZM7.14797 6.37413C7.24088 6.46704 7.35118 6.54074 7.47257 6.59102C7.59397 6.6413 7.72407 6.66718 7.85547 6.66718C7.98686 6.66718 8.11697 6.6413 8.23837 6.59102C8.35976 6.54074 8.47006 6.46704 8.56297 6.37413C8.65588 6.28122 8.72958 6.17092 8.77986 6.04952C8.83014 5.92813 8.85602 5.79802 8.85602 5.66663C8.85602 5.53523 8.83014 5.40512 8.77986 5.28373C8.72958 5.16234 8.65588 5.05204 8.56297 4.95913L7.56297 3.95913C7.37533 3.77149 7.12083 3.66607 6.85547 3.66607C6.5901 3.66607 6.33561 3.77149 6.14797 3.95913C5.96033 4.14677 5.85491 4.40126 5.85491 4.66663C5.85491 4.93199 5.96033 5.18649 6.14797 5.37413L7.14797 6.37413ZM18.023 9.68038C17.8929 9.65737 17.7595 9.66037 17.6306 9.68919C17.5017 9.71802 17.3798 9.7721 17.2719 9.84832C17.164 9.92454 17.0722 10.0214 17.002 10.1332C16.9317 10.2451 16.8843 10.3698 16.8625 10.5001C16.8407 10.6304 16.845 10.7637 16.875 10.8923C16.905 11.021 16.9602 11.1424 17.0374 11.2496C17.1146 11.3568 17.2123 11.4476 17.3249 11.5168C17.4374 11.586 17.5625 11.6323 17.693 11.6529C20.0642 12.0516 21.8555 14.2066 21.8555 16.6666C21.8555 16.9318 21.9608 17.1862 22.1484 17.3737C22.3359 17.5613 22.5903 17.6666 22.8555 17.6666C23.1207 17.6666 23.375 17.5613 23.5626 17.3737C23.7501 17.1862 23.8555 16.9318 23.8555 16.6666C23.8555 13.2416 21.3467 10.2379 18.0205 9.68038H18.023ZM29.8555 22.6666V25.6666C29.8555 26.1971 29.6448 26.7058 29.2697 27.0808C28.8946 27.4559 28.3859 27.6666 27.8555 27.6666H5.85547C5.32504 27.6666 4.81633 27.4559 4.44126 27.0808C4.06618 26.7058 3.85547 26.1971 3.85547 25.6666V22.6666C3.85547 22.1362 4.06618 21.6275 4.44126 21.2524C4.81633 20.8773 5.32504 20.6666 5.85547 20.6666V16.6666C5.85543 15.215 6.1427 13.7777 6.70073 12.4377C7.25876 11.0976 8.07652 9.88124 9.10685 8.85869C10.1372 7.83614 11.3597 7.02764 12.704 6.47979C14.0482 5.93194 15.4876 5.65557 16.9392 5.66663C22.958 5.71163 27.8555 10.7029 27.8555 16.7916V20.6666C28.3859 20.6666 28.8946 20.8773 29.2697 21.2524C29.6448 21.6275 29.8555 22.1362 29.8555 22.6666ZM7.85547 20.6666H25.8555V16.7916C25.8555 11.7916 21.8492 7.70288 16.9242 7.66663H16.8555C14.4685 7.66663 12.1793 8.61484 10.4915 10.3027C8.80368 11.9905 7.85547 14.2797 7.85547 16.6666V20.6666ZM27.8555 25.6666V22.6666H5.85547V25.6666H27.8555Z" fill="#bb2649"/>
</g>
<defs>
<clipPath id="clip0_853_2545">
<rect width="32" height="32" fill="#fff" transform="translate(0.855469 0.666626)"/>
</clipPath>
</defs>
</svg>
